<svg id="Flat" height="512" viewBox="0 0 512 512" width="512" xmlns="http://www.w3.org/2000/svg"><path d="m328 432s16 24 16 48h-320c0-24 16-48 16-48s-2.11-9.56-4.81-26.33a914.055 914.055 0 0 1 -11.19-141.67c0-95.65 32-200 32-200h256s32 104.35 32 200a914.055 914.055 0 0 1 -11.19 141.67c-2.7 16.77-4.81 26.33-4.81 26.33z" fill="#c48669"/><path d="m352 480h-328c0-24 16-48 16-48s-2.11-9.56-4.81-26.33c28.11-50.94 84.2-85.67 148.81-85.67s120.7 34.73 148.81 85.67a153.225 153.225 0 0 1 19.19 74.33z" fill="#f0dfce"/><path d="m32 32h304v48h-304z" fill="#a36f58"/><path d="m272 160h-176l8-16-8-16h176l-8 16z" fill="#a36f58"/><path d="m176 480v-216a8 8 0 0 1 16 0v216z" fill="#a36f58"/><g fill="#ea9f26"><path d="m136 208h16a32 32 0 0 1 32 32v32a0 0 0 0 1 0 0 48 48 0 0 1 -48-48v-16a0 0 0 0 1 0 0z" transform="matrix(-1 0 0 -1 320 480)"/><path d="m232 208a0 0 0 0 1 0 0v32a32 32 0 0 1 -32 32h-16a0 0 0 0 1 0 0v-16a48 48 0 0 1 48-48z"/><path d="m136 384h16a32 32 0 0 1 32 32v32a0 0 0 0 1 0 0 48 48 0 0 1 -48-48v-16a0 0 0 0 1 0 0z" transform="matrix(-1 0 0 -1 320 832)"/><path d="m232 384a0 0 0 0 1 0 0v32a32 32 0 0 1 -32 32h-16a0 0 0 0 1 0 0v-16a48 48 0 0 1 48-48z"/><path d="m136 296h16a32 32 0 0 1 32 32v32a0 0 0 0 1 0 0 48 48 0 0 1 -48-48v-16a0 0 0 0 1 0 0z" transform="matrix(-1 0 0 -1 320 656)"/><path d="m232 296a0 0 0 0 1 0 0v32a32 32 0 0 1 -32 32h-16a0 0 0 0 1 0 0v-16a48 48 0 0 1 48-48z"/><circle cx="184" cy="144" r="32"/></g><path d="m488 240v240h-224v-232l4.57-8 27.43-48h160l8 32z" fill="#ffb632"/><path d="m488 240v240h-64v-232l32-56 8 32z" fill="#f7b030"/><path d="m424 416s-32-40-80-40-80 40-80 40v64h160z" fill="#fbe9d8"/><ellipse cx="344" cy="320" fill="#ea9f26" rx="32" ry="24"/><path d="m360 248a8 8 0 0 1 -8 8h-88v-8l4.57-8h83.43a8 8 0 0 1 8 8z" fill="#ea9f26"/><path d="m448 256h-64a8 8 0 0 1 0-16h64a8 8 0 0 1 0 16z" fill="#ea9f26"/><path d="m448 480v-168a8 8 0 0 1 16 0v168z" fill="#ea9f26"/></svg>