<svg height="512pt" viewBox="0 0 512 512" width="512pt" xmlns="http://www.w3.org/2000/svg"><path d="m467.863281 141.242188v353.101562c0 9.75-7.90625 17.65625-17.65625 17.65625s-17.65625-7.90625-17.65625-17.65625v-353.101562zm0 0" fill="#805333"/><path d="m335.449219 35.308594h-282.484375v476.691406h282.484375c9.738281-.027344 17.625-7.917969 17.652343-17.65625v-441.378906c-.027343-9.738282-7.914062-17.625-17.652343-17.65625zm-61.792969 256h-105.933594l-4.414062-35.308594h114.761718zm0 0" fill="#f18d46"/><path d="m70.621094 35.308594v476.691406h-35.3125c-19.5 0-35.308594-15.808594-35.308594-35.308594v-406.070312c0-19.5 15.808594-35.3125 35.308594-35.3125zm0 0" fill="#804537"/><g fill="#cc6f56"><path d="m52.964844 88.277344h35.3125c4.875 0 8.824218-3.953125 8.824218-8.828125s-3.949218-8.828125-8.824218-8.828125h-35.3125c-4.875 0-8.828125 3.953125-8.828125 8.828125s3.953125 8.828125 8.828125 8.828125zm0 0"/><path d="m88.277344 105.929688h-35.3125c-4.875 0-8.828125 3.953124-8.828125 8.828124s3.953125 8.828126 8.828125 8.828126h35.3125c4.875 0 8.824218-3.953126 8.824218-8.828126s-3.949218-8.828124-8.824218-8.828124zm0 0"/><path d="m88.277344 141.242188h-35.3125c-4.875 0-8.828125 3.953124-8.828125 8.828124s3.953125 8.828126 8.828125 8.828126h35.3125c4.875 0 8.824218-3.953126 8.824218-8.828126s-3.949218-8.828124-8.824218-8.828124zm0 0"/><path d="m88.277344 176.550781h-35.3125c-4.875 0-8.828125 3.953125-8.828125 8.828125s3.953125 8.828125 8.828125 8.828125h35.3125c4.875 0 8.824218-3.953125 8.824218-8.828125s-3.949218-8.828125-8.824218-8.828125zm0 0"/><path d="m88.277344 211.863281h-35.3125c-4.875 0-8.828125 3.949219-8.828125 8.828125 0 4.875 3.953125 8.824219 8.828125 8.824219h35.3125c4.875 0 8.824218-3.949219 8.824218-8.824219 0-4.878906-3.949218-8.828125-8.824218-8.828125zm0 0"/><path d="m88.277344 247.171875h-35.3125c-4.875 0-8.828125 3.953125-8.828125 8.828125s3.953125 8.828125 8.828125 8.828125h35.3125c4.875 0 8.824218-3.953125 8.824218-8.828125s-3.949218-8.828125-8.824218-8.828125zm0 0"/><path d="m88.277344 282.484375h-35.3125c-4.875 0-8.828125 3.949219-8.828125 8.824219 0 4.878906 3.953125 8.828125 8.828125 8.828125h35.3125c4.875 0 8.824218-3.949219 8.824218-8.828125 0-4.875-3.949218-8.824219-8.824218-8.824219zm0 0"/><path d="m88.277344 317.792969h-35.3125c-4.875 0-8.828125 3.953125-8.828125 8.828125s3.953125 8.828125 8.828125 8.828125h35.3125c4.875 0 8.824218-3.953125 8.824218-8.828125s-3.949218-8.828125-8.824218-8.828125zm0 0"/><path d="m88.277344 353.101562h-35.3125c-4.875 0-8.828125 3.953126-8.828125 8.828126s3.953125 8.828124 8.828125 8.828124h35.3125c4.875 0 8.824218-3.953124 8.824218-8.828124s-3.949218-8.828126-8.824218-8.828126zm0 0"/><path d="m88.277344 388.414062h-35.3125c-4.875 0-8.828125 3.953126-8.828125 8.828126s3.953125 8.828124 8.828125 8.828124h35.3125c4.875 0 8.824218-3.953124 8.824218-8.828124s-3.949218-8.828126-8.824218-8.828126zm0 0"/><path d="m88.277344 423.722656h-35.3125c-4.875 0-8.828125 3.953125-8.828125 8.828125s3.953125 8.828125 8.828125 8.828125h35.3125c4.875 0 8.824218-3.953125 8.824218-8.828125s-3.949218-8.828125-8.824218-8.828125zm0 0"/><path d="m88.277344 459.035156h-35.3125c-4.875 0-8.828125 3.953125-8.828125 8.828125s3.953125 8.828125 8.828125 8.828125h35.3125c4.875 0 8.824218-3.953125 8.824218-8.828125s-3.949218-8.828125-8.824218-8.828125zm0 0"/></g><path d="m317.792969 185.378906c.011719 9.367188-3.703125 18.355469-10.328125 24.980469s-15.613282 10.34375-24.980469 10.332031l-4.414063 35.308594h-114.761718l-4.410156-35.308594c-19.503907.144532-35.429688-15.546875-35.578126-35.046875-.144531-19.5 15.546876-35.429687 35.046876-35.574219h1.765624c.441407-.015624.886719.011719 1.324219.085938-7.515625-25.292969 1.855469-52.566406 23.335938-67.898438 21.476562-15.328124 50.316406-15.328124 71.792969 0 21.480468 15.332032 30.851562 42.605469 23.335937 67.898438.4375-.074219.882813-.101562 1.324219-.085938h1.855468c19.257813.335938 34.695313 16.046876 34.691407 35.308594zm0 0" fill="#fff"/><path d="m278.070312 256-4.414062 35.308594h-105.933594l-4.414062-35.308594zm0 0" fill="#bdc3c7"/><path d="m132.414062 361.929688h17.65625c4.875 0 8.828126-3.949219 8.828126-8.828126 0-4.875-3.953126-8.824218-8.828126-8.824218h-17.65625c-4.875 0-8.828124 3.949218-8.828124 8.824218 0 4.878907 3.953124 8.828126 8.828124 8.828126zm0 0" fill="#e6e7e8"/><path d="m185.378906 361.929688h123.585938c4.875 0 8.828125-3.949219 8.828125-8.828126 0-4.875-3.953125-8.824218-8.828125-8.824218h-123.585938c-4.875 0-8.828125 3.949218-8.828125 8.824218 0 4.878907 3.953125 8.828126 8.828125 8.828126zm0 0" fill="#e6e7e8"/><path d="m150.070312 414.898438h-17.65625c-4.875 0-8.828124 3.949218-8.828124 8.824218s3.953124 8.828125 8.828124 8.828125h17.65625c4.875 0 8.828126-3.953125 8.828126-8.828125s-3.953126-8.824218-8.828126-8.824218zm0 0" fill="#e6e7e8"/><path d="m308.964844 414.898438h-123.585938c-4.875 0-8.828125 3.949218-8.828125 8.824218s3.953125 8.828125 8.828125 8.828125h123.585938c4.875 0 8.828125-3.953125 8.828125-8.828125s-3.953125-8.824218-8.828125-8.824218zm0 0" fill="#e6e7e8"/><path d="m132.414062 397.242188h88.277344c4.875 0 8.824219-3.953126 8.824219-8.828126s-3.949219-8.828124-8.824219-8.828124h-88.277344c-4.875 0-8.828124 3.953124-8.828124 8.828124s3.953124 8.828126 8.828124 8.828126zm0 0" fill="#e6e7e8"/><path d="m308.964844 379.585938h-52.964844c-4.875 0-8.828125 3.953124-8.828125 8.828124s3.953125 8.828126 8.828125 8.828126h52.964844c4.875 0 8.828125-3.953126 8.828125-8.828126s-3.953125-8.828124-8.828125-8.828124zm0 0" fill="#e6e7e8"/><path d="m512 88.277344c0-48.753906-27.664062-88.277344-61.792969-88.277344-34.128906 0-61.792969 39.523438-61.792969 88.277344 0 48.75 27.664063 88.273437 61.792969 88.273437 34.128907 0 61.792969-39.523437 61.792969-88.273437zm0 0" fill="#cb8252"/><path d="m187.320312 169.046875c-1.300781.703125-2.757812 1.066406-4.234374 1.0625-3.207032-.015625-6.152344-1.773437-7.683594-4.59375-3.117188-7.414063-9.351563-13.066406-17.035156-15.445313h1.765624c.441407-.015624.886719.011719 1.324219.085938-1.707031-5.757812-2.570312-11.734375-2.558593-17.742188.355468-.019531.710937.011719 1.058593.089844 13.695313 2.628906 25.234375 11.796875 30.894531 24.539063 1.128907 2.058593 1.394532 4.484375.730469 6.738281-.664062 2.25-2.195312 4.148438-4.261719 5.265625zm0 0" fill="#e6e7e8"/><path d="m283.011719 150.070312c-7.683594 2.378907-13.917969 8.03125-17.035157 15.445313-1.53125 2.820313-4.476562 4.578125-7.679687 4.59375-1.480469.003906-2.9375-.359375-4.238281-1.0625-2.066406-1.117187-3.597656-3.015625-4.261719-5.265625-.660156-2.253906-.398437-4.679688.730469-6.738281 5.691406-12.722657 17.21875-21.875 30.894531-24.539063.347656-.078125.707031-.109375 1.0625-.089844.007813 6.007813-.855469 11.984376-2.5625 17.742188.4375-.074219.882813-.101562 1.324219-.085938zm0 0" fill="#e6e7e8"/></svg>