<?xml version="1.0" encoding="iso-8859-1"?>
<!-- Generator: Adobe Illustrator 19.0.0, SVG Export Plug-In . SVG Version: 6.00 Build 0)  -->
<svg width="48px" version="1.1" id="Capa_1" xmlns="http://www.w3.org/2000/svg" xmlns:xlink="http://www.w3.org/1999/xlink" x="0px" y="0px"
	 viewBox="0 0 512 512" style="enable-background:new 0 0 512 512;" xml:space="preserve">
<g>
	<g>
		<path d="M86.882,155.291l85.322,85.322c19.367-15.493,42.889-25.562,68.796-28.477V91.38
			C182,94.837,128.43,118.331,86.882,155.291z"/>
	</g>
</g>
<g>
	<g>
		<path d="M65.671,176.502C25.584,221.564,0,280.704,0,345.62c0,8.291,6.709,15,15,15h91c8.291,0,15-6.709,15-15
			c0-31.813,11.517-60.699,29.993-83.796L65.671,176.502z"/>
	</g>
</g>
<g>
	<g>
		<path d="M371.898,228.331c-5.054-4.409-12.378-4.98-17.959-1.362l-130.18,83.041C206.371,321.113,196,340.024,196,360.62
			c0,33.091,26.909,60,60,60c23.262,0,44.619-13.623,54.404-34.702l65.2-139.98C378.417,239.903,376.908,232.725,371.898,228.331z"
			/>
	</g>
</g>
<g>
	<g>
		<path d="M446.329,176.502l-44.088,44.088c5.552,11.851,6.282,25.724,0.551,38.018l-19.724,42.345
			c5.078,13.949,7.932,28.942,7.932,44.667c0,8.291,6.709,15,15,15h91c8.291,0,15-6.709,15-15
			C512,280.704,486.416,221.564,446.329,176.502z"/>
	</g>
</g>
<g>
	<g>
		<path d="M271,91.38v120.756c12.629,1.421,24.662,4.6,35.953,9.219l30.859-19.686c12.363-8.012,27.471-9.731,43.205-2.277
			l44.101-44.101C383.57,118.331,330,94.837,271,91.38z"/>
	</g>
</g>
<g>
</g>
<g>
</g>
<g>
</g>
<g>
</g>
<g>
</g>
<g>
</g>
<g>
</g>
<g>
</g>
<g>
</g>
<g>
</g>
<g>
</g>
<g>
</g>
<g>
</g>
<g>
</g>
<g>
</g>
</svg>
