<svg fill="rgb(235, 105, 59)" height="512" viewBox="0 0 56 56" width="512" xmlns="http://www.w3.org/2000/svg"><path id="Shape" d="m52.2 20.766c-1.6197649 1.5229966-3.4217949 2.8396709-5.365 3.92-3.787 2.209-10.757 4.58-16.357 6.485l-1.816.619 7.027-3.949c.023-.012.061-.038.095-.061l1.761-1.04.1-.059c2.2081012-1.2879476 4.3415148-2.6998734 6.39-4.229 1.88111-1.3800097 3.6646852-2.8882634 5.338-4.514 2.4374272-2.3379844 4.2779949-5.2269247 5.367-8.424.1376458-.45978432.2481694-.92725581.331-1.4.4743944 1.31468769.7146965 2.7023478.71 4.1-.010859 3.2130538-1.299216 6.2898562-3.581 8.552zm-27.3 15.615-.806.806c-.2790615-1.2903589-.9413046-2.4663632-1.9-3.374-.9292124-.9389058-2.1063668-1.5940751-3.394-1.889l.818-.82c.0306281-.0237661.0596886-.0494864.087-.077.721579-.7265978 1.7102687-1.1243881 2.734-1.1.9513288-.0010844 1.8631031.3805634 2.53 1.059.0310936.0327069.0645143.0631197.1.091 1.384165 1.4798238 1.3398478 3.7922968-.1 5.218-.0246878.0272707-.0477286.0559883-.069.086zm-15.277 15.272c-.91.909-2.885.47-4.316-.96-.66953929-.6629049-1.14354261-1.4974275-1.37-2.412-.19659246-.6611659-.04364603-1.3769251.406-1.9l12.107-12.1.017-.016c.3355126-.3221154.7883511-.4926978 1.253-.472h.005c1.169515.0863054 2.2645195.6067 3.07 1.459 1.193 1.114 1.887 3.2 1 4.226l-.057.065zm17.43-21.282 25.815-25.825c.519992 1.41782777.5064856 2.97639689-.038 4.385-.9923437 2.8832309-2.6612957 5.4866177-4.867 7.592-1.6069306 1.5582409-3.3189568 3.0043083-5.124 4.328-1.9740821 1.4732592-4.0289524 2.835049-6.155 4.079l-.1.059-1.85 1.09c-.016.009-.043.027-.068.045l-7.596 4.268zm24.4-27.236-25.808 25.816c-.06-.042-.117-.087-.179-.127l5.576-9.456c1.2512295-2.1451075 2.6227519-4.2177489 4.108-6.208 1.325317-1.8028473 2.7709433-3.51407859 4.327-5.122 4.163-4.156 9.296-6.17 11.974-4.903zm-20.138 6.027c1.0839178-1.94074965 2.4013871-3.74148123 3.923-5.362 2.2604576-2.28112389 5.3356019-3.56918011 8.547-3.58h.06c1.3781562.00225493 2.7455755.24244981 4.042.71-3.7637764.89300215-7.1808327 2.87561825-9.824 5.7-1.6224334 1.67504231-3.1298648 3.457767-4.512 5.336-1.5412784 2.0622849-2.9642345 4.2104077-4.262 6.434l-4.775 8.1 3.6-10.243c.007-.018.013-.037.019-.055.8430461-2.4390767 1.9081805-4.7956279 3.182-7.04zm-27.548-.9c-.697-.393-1.367-.773-1.967-1.151-.9942768-.63126069-1.64688562-1.68102965-1.773-2.852-.17462227-1.62270422.69367097-3.17898255 2.16625185-3.88266391 1.47258089-.70368137 3.22890588-.40159218 4.38174815.75366391.20134807.20331879.38036672.42759497.534.669.38.6.76 1.271 1.155 1.968 1.07057432 2.19016532 2.5314568 4.16681287 4.311 5.833-.518.455-1.034.929-1.542 1.437s-.982 1.024-1.437 1.542c-1.66465635-1.7805836-3.63994083-3.24281596-5.829-4.315zm6.524 6.581c1.3524362-1.6730581 2.8775364-3.1988287 4.55-4.552.9681763-.90103313 2.1258333-1.57382729 3.388-1.969l7.81 7.809-4.152 11.813c-1.0155566.0839271-1.9900455.4385693-2.822 1.027l-10.741-10.742c.39403387-1.2610439 1.06624-2.4174982 1.967-3.384zm-9.2 40.068c-1.45469957-1.474403-1.44127852-3.8481404.03-5.306l.875-.874c.30849198 1.278983.96629094 2.4470954 1.9 3.374.91664857.9455845 2.0857005 1.6078622 3.368 1.908l-.868.868c-1.45787556 1.4732799-3.83347062 1.4875988-5.309.032zm25.929-17.986c.5786213-.827618.9277869-1.7936888 1.012-2.8.962-.334 1.989-.686 3.091-1.06 2.763-.94 5.854-1.993 8.757-3.091l7.8 7.8c-.063.675-1.277 2.936-4.13 5.779s-5.1 4.063-5.776 4.126zm27.85 17.945c-.8211153.8239522-1.9729203 1.2288693-3.129 1.1-1.1701096-.1263253-2.2190534-.7785107-2.85-1.772-.38-.6-.76-1.271-1.155-1.968-1.0704519-2.1868766-2.5295007-4.1609635-4.306-5.826.709-.623 1.265-1.167 1.536-1.439s.817-.829 1.441-1.539c1.6647288 1.7771075 3.6388699 3.2365352 5.826 4.307.7.4 1.369.775 1.965 1.154.2426898.1535046.4680083.3328876.672.535 1.502944 1.5050362 1.502944 3.9429638 0 5.448z"/></svg>