<svg fill="white" width="24px" id="Capa_1" enable-background="new 0 0 556.235 556.235" viewBox="0 0 556.235 556.235" xmlns="http://www.w3.org/2000/svg"><path d="m451.94 222.609c0-49.998-17.777-97.156-49.369-134.437 8.999-9.374 14.605-22.033 14.605-36.025-.001-28.756-23.392-52.147-52.148-52.147h-173.823c-25.208 0-46.282 17.979-51.101 41.786l311.836 311.836z"/><path d="m556.234 507.074-507.075-507.074-49.159 49.159 113.808 113.808c-5.977 19.078-9.514 39.01-9.514 59.642v264.096c0 38.329 31.183 69.529 69.529 69.529h208.588c33.867 0 62.065-24.365 68.208-56.457l56.456 56.457 49.159-49.159z"/></svg>