<svg fill="white" width="24px" viewBox="0 0 503.01754 503.01754" xmlns="http://www.w3.org/2000/svg"><path d="m179.066406 379.453125c11.050782 15.847656 26.90625 27.722656 45.226563 33.867187 3.703125 1.511719 7.890625 1.285157 11.40625-.621093 2.886719-1.5625 4.90625-4.359375 5.480469-7.589844.554687-3.125.996093-6.59375 1.320312-10.203125-.433594-5.683594-.433594-11.386719 0-17.066406-.703125-9.136719-3.417969-18-7.949219-25.960938-13.816406-23.355468-44.734375-34.4375-59.097656-38.480468-3.886719 13.570312-9.914063 43.214843 3.613281 66.054687zm0 0"/><path d="m261.839844 405.117188c.578125 3.230468 2.59375 6.019531 5.476562 7.582031 3.519532 1.90625 7.707032 2.132812 11.410156.621093 18.316407-6.144531 34.171876-18.019531 45.226563-33.867187 13.527344-22.839844 7.535156-52.484375 3.59375-66.054687-14.375 4.042968-45.28125 15.144531-59.097656 38.480468-4.53125 7.960938-7.246094 16.824219-7.949219 25.960938.433594 5.679687.433594 11.382812 0 17.066406.339844 3.609375.78125 7.078125 1.339844 10.210938zm0 0"/><path d="m179.09375 282.238281c4.890625 7.957031 11.425781 14.777344 19.167969 20.003907 9.125 3.671874 17.832031 8.3125 25.96875 13.839843l.546875.226563c3.609375 1.296875 7.601562.96875 10.949218-.898438 2.882813-1.570312 4.898438-4.359375 5.480469-7.589844.539063-3.027343.96875-6.378906 1.285157-9.882812-.464844-5.878906-.464844-11.785156 0-17.667969-.75-9.027343-3.453126-17.785156-7.925782-25.660156-5.015625-8.125-11.714844-15.078125-19.644531-20.390625-7.644531-5.332031-15.910156-9.714844-24.609375-13.0625-2.902344-1.15625-5.652344-2.136719-8.175781-2.980469-2.460938-.816406-4.714844-1.5-6.664063-2.050781-3.90625 13.628906-9.925781 43.28125 3.621094 66.113281zm0 0"/><path d="m249.992188 342.726562c.582031.976563.988281 2.003907 1.515624 3 .53125-.996093.898438-2.023437 1.519532-3 2.285156-3.777343 4.894531-7.34375 7.804687-10.664062-.773437-.347656-1.605469-.527344-2.363281-.941406-2.597656-1.523438-4.949219-3.441406-6.960938-5.6875-2.011718 2.246094-4.359374 4.164062-6.960937 5.6875-.753906.421875-1.589844.59375-2.363281.941406 2.914062 3.320312 5.523437 6.890625 7.808594 10.671875zm0 0"/><path d="m234.550781 157.460938c-13.84375-23.351563-44.75-34.402344-59.105469-38.433594-3.90625 13.5625-9.878906 43.1875 3.648438 66.082031 4.890625 7.898437 11.375 14.6875 19.042969 19.933594 9.164062 3.644531 17.902343 8.292969 26.046875 13.859375l.574218.234375c3.585938 1.335937 7.574219 1.039062 10.925782-.808594 2.898437-1.582031 4.925781-4.398437 5.503906-7.652344.539062-3.027343.96875-6.386719 1.285156-9.882812-.464844-5.882813-.464844-11.792969 0-17.675781-.746094-9.027344-3.453125-17.78125-7.921875-25.65625zm0 0"/><path d="m220.816406 119.429688c11.851563 7.21875 21.855469 17.105468 29.203125 28.878906.574219.972656.96875 1.976562 1.488281 2.957031.511719-.972656.898438-1.976563 1.484376-2.9375 7.34375-11.777344 17.34375-21.671875 29.199218-28.886719.109375-1.464844.316406-2.910156.316406-4.394531 0-13.90625-11.5625-46.429687-31-87.246094-19.445312 40.84375-30.996093 73.339844-30.996093 87.246094 0 1.382813.1875 2.910156.304687 4.382813zm0 0"/><path d="m251.507812 248.480469c.511719-.976563.898438-1.976563 1.484376-2.945313 2.28125-3.765625 4.890624-7.324218 7.804687-10.625-.746094-.34375-1.546875-.511718-2.273437-.898437-2.625-1.539063-4.992188-3.480469-7.015626-5.75-2.023437 2.265625-4.390624 4.203125-7.015624 5.730469-.726563.40625-1.527344.574218-2.269532.898437 2.914063 3.304687 5.527344 6.863281 7.804688 10.636719.582031.976562.96875 1.976562 1.480468 2.953125zm0 0"/><path d="m327.597656 216.171875c-5.035156 1.425781-9.992187 3.105469-14.855468 5.039063-8.683594 3.339843-16.9375 7.710937-24.574219 13.023437-7.949219 5.328125-14.667969 12.292969-19.699219 20.425781-4.472656 7.882813-7.175781 16.644532-7.921875 25.671875.46875 5.882813.46875 11.789063 0 17.671875.320313 3.5.753906 6.859375 1.292969 9.878906.589844 3.21875 2.605468 6 5.476562 7.5625 3.539063 1.921876 7.75 2.164063 11.480469.65625 8.132813-5.542968 16.839844-10.195312 25.96875-13.878906 7.730469-5.222656 14.253906-12.03125 19.140625-19.976562 13.628906-22.949219 7.617188-52.527344 3.691406-66.074219zm0 0"/><path d="m339.410156 388.617188c-13.078125 19.328124-32.09375 33.875-54.171875 41.445312-1.429687.515625-2.890625.9375-4.375 1.257812l-19.402343 35.308594c44.585937-2.035156 87.417968-17.953125 122.511718-45.53125l-40.511718-40.511718c-1.179688 2.757812-2.535157 5.441406-4.050782 8.03125zm0 0"/><path d="m251.507812 422.640625c-2.023437 2.261719-4.386718 4.195313-7.003906 5.722656-1.101562.519531-2.234375.972657-3.386718 1.355469l10.246093 17.96875 10.027344-18.183594c-.898437-.410156-1.941406-.636718-2.839844-1.140625-2.632812-1.527343-5.007812-3.457031-7.042969-5.722656zm0 0"/><path d="m275.664062 37.285156c11.375 22.976563 19.566407 47.390625 24.351563 72.578125 10.203125-4.582031 20.867187-8.058593 31.8125-10.363281 4.207031-.792969 8.386719 1.492188 9.992187 5.460938.832032 2.066406 20.191407 51.0625-2.445312 89.292968-.628906 1.078125-1.417969 2.09375-2.121094 3.144532 2.066406.9375 3.699219 2.617187 4.574219 4.707031.824219 2.066406 20.183594 51.144531-2.453125 89.292969-.648438 1.097656-1.445312 2.128906-2.15625 3.199218 2.089844.929688 3.742188 2.621094 4.617188 4.734375.144531.367188.898437 2.261719 1.851562 5.246094l78.351562 78.34375c47.652344-61.542969 58.359376-144.019531 28-215.6875-30.359374-71.667969-97.054687-121.359375-174.414062-129.949219zm0 0"/><path d="m251.507812 0c-138.902343 0-251.507812 112.605469-251.507812 251.507812 0 138.90625 112.605469 251.507813 251.507812 251.507813 138.90625 0 251.507813-112.601563 251.507813-251.507813-.15625-138.835937-112.667969-251.347656-251.507813-251.507812zm178.238282 402.316406c-.078125.097656-.203125.125-.285156.214844-.082032.089844-.117188.222656-.214844.324219-.546875.46875-1.152344.867187-1.796875 1.183593-.328125.25-.667969.480469-1.023438.683594-1.117187.492188-2.320312.75-3.539062.761719-1.097657-.007813-2.183594-.21875-3.199219-.628906-.3125-.160157-.613281-.339844-.898438-.546875-.585937-.253906-1.136718-.574219-1.652343-.953125-.097657-.089844-.144531-.203125-.234375-.292969s-.222656-.117188-.3125-.207031l-66.578125-66.570313c.648437 8.191406.34375 16.433594-.898438 24.558594l54.730469 54.730469c.078125.078125.105469.195312.1875.277343.082031.082032.179688.117188.261719.207032.269531.398437.507812.820312.707031 1.257812.347656.492188.648438 1.015625.898438 1.5625.167968.546875.273437 1.109375.324218 1.679688.121094.558594.191406 1.125.207032 1.699218-.054688.566407-.164063 1.132813-.332032 1.679688-.09375.554688-.242187 1.105469-.441406 1.632812-.285156.539063-.621094 1.046876-1.003906 1.519532-.230469.414062-.496094.8125-.792969 1.183594-.078125.082031-.1875.109374-.269531.179687-.078125.074219-.125.199219-.214844.269531-92.542969 79.683594-230.871094 74.527344-317.226562-11.820312-86.351563-86.347656-91.519532-224.675782-11.84375-317.222656.078124-.101563.195312-.128907.269531-.21875.070312-.089844.105469-.195313.1875-.277344.363281-.285156.75-.542969 1.15625-.761719.480469-.40625 1.007812-.753906 1.566406-1.042969.488281-.1875 1-.324218 1.515625-.414062.585938-.179688 1.1875-.296875 1.796875-.347656.539063.011718 1.074219.074218 1.597656.1875.609375.050781 1.210938.164062 1.796875.339843.535156.25 1.042969.550781 1.519532.898438.449218.207031.882812.449219 1.292968.726562.089844.082031.117188.191407.207032.269531.089843.082032.199218.109376.277343.191407l66.308594 66.308593c-1.195313-8.59375-1.363281-17.300781-.492187-25.933593l-52.996094-52.996094c-.101563-.097656-.128906-.226563-.21875-.324219s-.203125-.125-.292969-.222656c-.265625-.402344-.5-.828125-.695313-1.269531-.328124-.476563-.613281-.988281-.84375-1.527344-.164062-.550781-.273437-1.121094-.320312-1.695313-.136719-.566406-.214844-1.144531-.226562-1.726562.058593-.566406.167968-1.128906.324218-1.679688.101563-.558593.257813-1.105468.464844-1.632812.285156-.535156.621094-1.039062 1-1.511719.226562-.402343.484375-.792969.769531-1.15625.089844-.089843.21875-.117187.308594-.207031s.132813-.214844.242187-.296875c37.933594-32.382813 85.359376-51.566406 135.140626-54.667969l.414062-.898437c2.671875-5.960938 8.59375-9.796875 15.128906-9.796875s12.457032 3.835937 15.132813 9.796875l.339843.746093c87.945313 5.792969 165.132813 60.632813 199.546876 141.773438 34.414062 81.140625 20.1875 174.746094-36.777344 242.003906zm0 0"/><path d="m296.734375 131.671875c-.828125.777344-1.800781 1.390625-2.863281 1.796875-10.308594 5.824219-19.035156 14.082031-25.414063 24.054688-4.472656 7.871093-7.171875 16.617187-7.910156 25.636718.464844 5.882813.464844 11.796875 0 17.679688.320313 3.503906.753906 6.851562 1.292969 9.878906.582031 3.25 2.605468 6.0625 5.503906 7.644531 3.523438 1.902344 7.714844 2.121094 11.417969.59375h.089843c8.144532-5.566406 16.882813-10.210937 26.050782-13.851562 7.664062-5.242188 14.152344-12.027344 19.039062-19.921875 13.554688-22.90625 7.566406-52.53125 3.65625-66.09375-10.738281 2.988281-21.09375 7.210937-30.863281 12.582031zm0 0"/><path d="m217.78125 430.0625c-22.082031-7.570312-41.097656-22.121094-54.175781-41.453125-22.597657-38.160156-3.25-87.203125-2.425781-89.277344.878906-2.109375 2.53125-3.796875 4.617187-4.726562-.71875-1.085938-1.527344-2.128907-2.171875-3.234375-22.617188-38.121094-3.261719-87.199219-2.433594-89.265625.359375-.847657.855469-1.632813 1.464844-2.328125l-80.734375-80.742188c-49.847656 63.410156-60.027344 149.375-26.371094 222.675782 33.660157 73.296874 105.5 121.601562 186.078125 125.117187l-20.445312-35.769531c-1.152344-.265625-2.289063-.597656-3.402344-.996094zm0 0"/><path d="m161.199219 104.996094c1.605469-3.96875 5.78125-6.253906 9.988281-5.460938 10.945312 2.292969 21.609375 5.757813 31.816406 10.328125 4.753906-25.140625 12.914063-49.519531 24.253906-72.460937-39.074218 4.324218-76.171874 19.433594-107.144531 43.636718l36.925781 36.925782c1.132813-4.398438 2.519532-8.730469 4.160157-12.96875zm0 0"/></svg>