<svg fill="white" width="24px" viewBox="1 0 511.99941 511" xmlns="http://www.w3.org/2000/svg"><path d="m28.289062 201.003906c1.8125.738282 3.730469 1.105469 5.648438 1.105469 1.984375 0 3.96875-.394531 5.832031-1.179687l44.867188-18.9375c7.628906-3.222657 11.207031-12.019532 7.984375-19.652344-3.222656-7.632813-12.015625-11.207032-19.652344-7.984375l-10.976562 4.628906c34.054687-77.515625 111.101562-128.484375 196.828124-128.484375 98.015626 0 183.609376 66.277344 208.148438 161.171875 1.746094 6.761719 7.835938 11.25 14.511719 11.25 1.242187 0 2.507812-.15625 3.765625-.480469 8.019531-2.074218 12.84375-10.257812 10.769531-18.277344-27.964844-108.140624-125.503906-183.664062-237.195313-183.664062-98.238281 0-186.464843 58.742188-224.933593 147.914062l-5.066407-12.003906c-3.21875-7.628906-12.015624-11.207031-19.648437-7.984375-7.632813 3.21875-11.210937 12.019531-7.988281 19.648438l18.933594 44.867187c1.546874 3.664063 4.484374 6.566406 8.171874 8.0625zm0 0"/><path d="m510.816406 361.875-18.933594-44.863281c-1.546874-3.664063-4.488281-6.566407-8.171874-8.066407-3.683594-1.496093-7.816407-1.46875-11.480469.078126l-44.867188 18.9375c-7.632812 3.21875-11.207031 12.019531-7.984375 19.652343 3.21875 7.632813 12.019532 11.207031 19.648438 7.984375l12.5625-5.300781c-33.199219 79.59375-111.324219 132.195313-198.410156 132.195313-98.015626 0-183.609376-66.277344-208.148438-161.175782-2.074219-8.019531-10.261719-12.835937-18.277344-10.765625-8.019531 2.074219-12.839844 10.257813-10.765625 18.277344 27.960938 108.136719 125.5 183.660156 237.191407 183.660156 98.792968 0 187.460937-59.40625 225.578124-149.421875l4.417969 10.472656c2.417969 5.726563 7.976563 9.171876 13.828125 9.171876 1.941406 0 3.921875-.382813 5.824219-1.1875 7.632813-3.21875 11.207031-12.015626 7.988281-19.648438zm0 0"/><path d="m326.402344 316.402344c3.828125-2.929688 7.558594-6.050782 11.179687-9.359375 42.171875-38.523438 62.535157-95.320313 49.519531-138.113281-1.34375-4.417969-4.644531-7.972657-8.953124-9.632813-33.429688-12.886719-71.050782-5.144531-102.457032 8.300781 23.609375 22.015625 41.734375 49.027344 50.515625 75.671875 7.285157 22.105469 8.34375 43.523438 3.152344 63.664063-.832031 3.230468-1.828125 6.382812-2.957031 9.46875zm0 0"/><path d="m245.203125 383.25 12.027344 40.507812c1.933593 6.519532 7.902343 10.734376 14.371093 10.734376 1.414063 0 2.851563-.199219 4.277344-.625 7.9375-2.355469 12.46875-10.707032 10.109375-18.644532l-12.21875-41.15625c-9.0625 4.5-18.660156 7.597656-28.566406 9.183594zm0 0"/><path d="m297.714844 252.660156c-17.304688-52.503906-77.378906-101.773437-123.917969-101.773437-.1875 0-.382813 0-.566406.003906-5.335938.046875-10.242188 2.921875-12.890625 7.554687-2.648438 4.632813-2.636719 10.324219.03125 14.945313 10.199218 17.667969 5.914062 33.199219-1.917969 57.078125-5.390625 16.425781-10.964844 33.40625-8.855469 52.28125 3.089844 27.675781 22.457032 53.226562 49.339844 65.09375 10.082031 4.449219 20.429688 6.648438 30.582031 6.648438 14.683594 0 28.964844-4.605469 41.449219-13.671876 15.246094-11.074218 25.117188-24.992187 29.339844-41.375 3.734375-14.484374 2.863281-30.226562-2.59375-46.785156zm0 0"/></svg>