<svg fill="white" width="24px" viewBox="0 0 56 56" xmlns="http://www.w3.org/2000/svg"><g id="014---Healthy-Living" transform="translate(-1)"><path id="Shape" d="m55.67 23.53c-3.204133 2.1895105-6.8440772 3.659816-10.67 4.31-5 .82-9.51 1.78-13.22 5.31-2.96 2.85-4.78 6.76-4.78 17.79.2590999 1.6106782.9979356 3.1057751 2.12 4.29 3.5800402-7.2686057 8.9994844-13.4740762 15.72-18 .4639192-.3203252 1.0996748-.2039192 1.42.26s.2039192 1.0996748-.26 1.42c-6.3805885 4.3186152-11.5454839 10.2031527-15 17.09 10.17.6 19.06-3.48 23.53-13.16 2.8123096-6.0598793 3.2197477-12.9613095 1.14-19.31z"/><path id="Shape" d="m11.39 27.15c-3.32102356-.5361797-6.48871595-1.7773423-9.29-3.64-4.45 12.62 4.61 30.05 22.3 26.81-3.7406183-5.4053281-8.4705317-10.0538083-13.94-13.7-.344934-.3411362-.3952618-.8806426-.1193759-1.279692.275886-.3990493.7983955-.54252 1.2393759-.340308 5.1870368 3.4709301 9.745463 7.799406 13.48 12.8.0033468-3.530792.5566457-7.0395169 1.64-10.4-.8500143-2.1635492-2.1524098-4.1205518-3.82-5.74-3.21-2.99-6.95-3.79-11.49-4.51z"/><path id="Shape" d="m29 26.58 12.67-12.82c1.5004609-1.5167352 2.3383495-3.5665055 2.33-5.7-.0130868-3.21011972-1.9437584-6.10153534-4.903736-7.34394126s-6.3759479-.59516253-8.676264 1.64394126l-.71.71c-.1877666.18931265-.4433625.29579832-.71.29579832s-.5222334-.10648567-.71-.29579832l-.7-.7c-1.4687265-1.50969727-3.4837456-2.36400768-5.59-2.37-7.08 0-10.63 8.71-5.63 13.75zm-7-24.58c.4030694.007571.8046604.05107669 1.2.13.5522847.1159798.9059798.65771525.79 1.21s-.6577153.9059798-1.21.79c-.2543838-.07208363-.5159882-.11568436-.78-.13-.5522847 0-1-.44771525-1-1 0-.26521649.1053568-.5195704.2928932-.70710678s.4418903-.29289322.7071068-.29289322zm-4.24 1.77c.2518722-.25365858.619937-.35367653.9655479-.26237805.3456109.09129847.6162614.36004296.71.70500001.0937387.34495704-.0036757.71371947-.2555479.96737804-1.4137902 1.44434601-1.574584 3.6996911-.38 5.33.2468831.2832737.3141279.681037.1740824 1.0297238s-.4637399.5894345-.8379753.6232441-.7358363-.1450263-.9361071-.4629679c-1.7807018-2.42373487-1.5436491-5.78056986.56-7.93z"/></g></svg>