<?xml version="1.0" encoding="iso-8859-1"?>
<!-- Generator: Adobe Illustrator 19.0.0, SVG Export Plug-In . SVG Version: 6.00 Build 0)  -->
<svg fill="white" width="24px" version="1.1" id="Capa_1" xmlns="http://www.w3.org/2000/svg" xmlns:xlink="http://www.w3.org/1999/xlink" x="0px" y="0px"
	 viewBox="0 0 512 512" style="enable-background:new 0 0 512 512;" xml:space="preserve">
<g>
	<g>
		<path d="M256,0C114.844,0,0,114.844,0,256s114.844,256,256,256s256-114.844,256-256S397.156,0,256,0z M256,469.333
			c-117.635,0-213.333-95.698-213.333-213.333c0-51.151,18.125-98.126,48.249-134.918l63.759,63.759
			C137.814,224.04,128,266.938,128,297.802c0,71.052,57.417,128.865,128,128.865c38.392,0,72.798-17.188,96.279-44.221
			l38.639,38.639C354.126,451.208,307.151,469.333,256,469.333z M309.6,339.767c-13.587,14.065-32.549,22.9-53.6,22.9
			c-41.167,0-74.667-33.5-74.667-74.667c0-21.051,8.835-40.013,22.9-53.6L309.6,339.767z M244.648,214.482
			c3.729-0.576,7.465-1.148,11.352-1.148c41.167,0,74.667,33.5,74.667,74.667c0,3.887-0.573,7.622-1.148,11.352L244.648,214.482z
			 M421.085,390.918l-46.049-46.049c5.717-14.602,8.965-30.445,8.965-47.066c0-72.729-54.063-212.469-128-212.469
			c-31.374,0-59.103,25.268-80.707,59.793l-54.211-54.211C157.874,60.792,204.849,42.667,256,42.667
			c117.635,0,213.333,95.698,213.333,213.333C469.333,307.151,451.208,354.126,421.085,390.918z"/>
	</g>
</g>
<g>
</g>
<g>
</g>
<g>
</g>
<g>
</g>
<g>
</g>
<g>
</g>
<g>
</g>
<g>
</g>
<g>
</g>
<g>
</g>
<g>
</g>
<g>
</g>
<g>
</g>
<g>
</g>
<g>
</g>
</svg>
