<svg fill="white" width="24px" id="Capa_1" enable-background="new 0 0 510.848 510.848" viewBox="0 0 510.848 510.848" xmlns="http://www.w3.org/2000/svg"><g><path d="m465.848 210.811h-36.847v95.197c0 41.244-33.464 74.819-74.666 74.999v34.512c0 5.003-2.494 9.677-6.651 12.462-2.506 1.679-5.419 2.538-8.35 2.538-1.931 0-3.868-.372-5.706-1.128l-117.611-48.383h-.501v36.372c0 24.813 20.187 45 45 45h8.689v20.601c0 5.003 2.495 9.677 6.651 12.462 2.507 1.68 5.418 2.538 8.35 2.538 1.93 0 3.869-.372 5.706-1.128l83.799-34.473h92.137c24.813 0 45-20.187 45-45v-161.569c0-24.814-20.187-45-45-45z"/><path d="m218.981 351.008c1.958 0 3.896.383 5.707 1.128l99.646 40.992v-27.12c0-8.284 6.716-15 15-15h14.666c24.813 0 45-20.187 45-45v-95.197-152.944c0-24.813-20.187-45-45-45h-309c-24.813 0-45 20.187-45 45v248.14c0 24.813 20.187 45 45 45zm-77.036-83.763c-3.925-2.851-6.229-7.425-6.183-12.275l.434-46.374-27.608-37.26c-2.889-3.898-3.713-8.952-2.214-13.565 1.499-4.614 5.137-8.218 9.764-9.674l44.238-13.917 26.907-37.772c2.814-3.951 7.366-6.297 12.217-6.297 4.852 0 9.402 2.346 12.217 6.297l26.906 37.772 44.238 13.917c4.627 1.456 8.265 5.06 9.764 9.674 1.499 4.613.675 9.667-2.214 13.565l-27.608 37.26.434 46.374c.046 4.851-2.258 9.425-6.183 12.275-2.596 1.887-5.689 2.865-8.817 2.865-1.601 0-3.211-.256-4.768-.778l-43.969-14.743-43.97 14.743c-4.597 1.544-9.661.766-13.585-2.087z"/><path d="m204.269 224.547 28.772 9.647-.284-30.347c-.031-3.264 1.004-6.448 2.947-9.071l18.066-24.382-28.948-9.107c-3.113-.979-5.821-2.947-7.715-5.605l-17.607-24.718-17.608 24.718c-1.894 2.658-4.602 4.626-7.715 5.605l-28.948 9.107 18.066 24.382c1.943 2.623 2.979 5.808 2.947 9.071l-.284 30.347 28.773-9.647c3.095-1.037 6.445-1.037 9.538 0z"/></g></svg>