<?xml version="1.0" encoding="iso-8859-1"?>
<!-- Generator: Adobe Illustrator 16.0.0, SVG Export Plug-In . SVG Version: 6.00 Build 0)  -->
<!DOCTYPE svg PUBLIC "-//W3C//DTD SVG 1.1//EN" "http://www.w3.org/Graphics/SVG/1.1/DTD/svg11.dtd">
<svg fill="white" version="1.1" id="Capa_1" xmlns="http://www.w3.org/2000/svg" xmlns:xlink="http://www.w3.org/1999/xlink" x="0px" y="0px"
	 width="24px" viewBox="0 0 191.386 191.386" style="enable-background:new 0 0 191.386 191.386;"
	 xml:space="preserve">
<g>
	<g>
		<path d="M191.192,43.137c-0.107-4.907-1.603-9.94-4.721-14.391c-5.474-7.834-13.97-12.104-23.691-11.534
			c-12.158,0.756-27.56,5.953-42.455,10.975l-7.405,2.48c-6.121,2.036-11.972,2.326-19.38,2.695
			c-9.618,0.479-21.574,1.068-38.429,5.941c-25.421,7.364-42.966,20.081-50.72,36.764c-2.883,6.186-4.24,12.852-4.286,19.678
			C0.087,95.763,0,95.843,0,95.843v20.67c-0.038,7.466,1.611,15.148,4.931,22.639c8.893,19.993,34.636,35.072,59.889,35.072
			c17.61,0,33.963-6.977,47.293-20.185c11.67-11.554,15.861-19,20.33-26.878c3.09-5.458,6.255-11.085,12.451-18.631
			c5.306-6.47,12.098-9.632,19.287-12.978c10.184-4.743,20.715-9.648,25.916-23.888c0.95-2.631,1.371-5.448,1.238-8.299
			l0.049-20.025C191.325,43.245,191.241,43.197,191.192,43.137z M13.762,80.426c6.464-13.896,21.754-24.682,44.22-31.19
			c15.693-4.546,26.507-5.079,36.059-5.558c7.875-0.385,14.683-0.729,22.129-3.206l7.454-2.495
			c14.258-4.811,29.001-9.79,39.793-10.458l1.082-0.03c5.398,0,10.304,2.615,13.493,7.175c2.85,4.076,3.763,8.966,2.385,12.757
			c-3.735,10.211-11.157,13.68-20.578,18.062c-7.542,3.519-16.098,7.506-22.906,15.797c-6.745,8.233-10.167,14.262-13.461,20.111
			c-4.256,7.546-7.951,14.062-18.605,24.61c-11.353,11.261-25.183,17.195-40.014,17.195c-23.52,0-44.12-14.719-50.438-28.934
			C10.734,106.046,7.671,93.537,13.762,80.426z"/>
		<path d="M64.821,132.848c12.216,0,23.229-4.77,32.734-14.207c9.618-9.514,12.82-15.166,16.86-22.319
			c3.357-5.949,7.152-12.671,14.49-21.61c8.3-10.113,18.422-14.824,26.541-18.607c9.795-4.57,13.145-6.524,15.217-12.232
			c0.092-0.399-0.133-1.859-1.143-3.288c-0.721-1.036-2.344-2.771-5.013-2.771c-9.875,0.605-23.953,5.354-37.55,9.946l-7.514,2.519
			c-8.801,2.921-16.595,3.308-24.862,3.723c-9.021,0.447-19.194,0.958-33.717,5.158C41.349,64.81,28.301,73.664,23.127,84.772
			c-4.45,9.588-2.078,19.045,0.701,25.284C28.7,121.021,45.761,132.848,64.821,132.848z M63.905,75.477
			c13.469,0,24.389,7.662,24.389,17.132c0,9.452-10.92,17.127-24.389,17.127c-13.481,0-24.403-7.676-24.403-17.127
			C39.502,83.139,50.424,75.477,63.905,75.477z"/>
	</g>
</g>
<g>
</g>
<g>
</g>
<g>
</g>
<g>
</g>
<g>
</g>
<g>
</g>
<g>
</g>
<g>
</g>
<g>
</g>
<g>
</g>
<g>
</g>
<g>
</g>
<g>
</g>
<g>
</g>
<g>
</g>
</svg>
