<?xml version="1.0" encoding="iso-8859-1"?>
<!-- Generator: Adobe Illustrator 19.0.0, SVG Export Plug-In . SVG Version: 6.00 Build 0)  -->
<svg fill="white" width="24px" version="1.1" id="Capa_1" xmlns="http://www.w3.org/2000/svg" xmlns:xlink="http://www.w3.org/1999/xlink" x="0px" y="0px"
	 viewBox="0 0 512 512" style="enable-background:new 0 0 512 512;" xml:space="preserve">
<g>
	<g>
		<path d="M170.469,244.963l147.947,147.947c0.682-13.128,1.271-42.1-3.707-76.814c-8.971-62.564-32.044-113.967-66.726-148.647
			c-34.681-34.681-86.083-57.755-148.647-66.726c-46.552-6.676-82.801-3.341-84.321-3.194c-7.447,0.712-13.342,6.607-14.054,14.054
			c-0.146,1.52-3.481,37.768,3.194,84.321c8.971,62.564,32.044,113.967,66.726,148.647c34.681,34.681,86.083,57.755,148.647,66.726
			c23.042,3.304,43.553,4.155,58.583,4.155c7.612,0,13.815-0.219,18.229-0.449L148.394,267.038c-6.096-6.095-6.096-15.979,0-22.076
			C154.489,238.868,164.373,238.868,170.469,244.963z"/>
	</g>
</g>
<g>
	<g>
		<path d="M511.306,205.805c-0.712-7.447-6.607-13.342-14.054-14.054c-4.172-0.398-102.848-9.104-160.309,48.358
			c-2.237,2.237-4.371,4.54-6.413,6.895c6.727,20.116,11.796,41.738,15.082,64.661c1.052,7.34,1.871,14.425,2.508,21.195
			l40.787-40.787c6.095-6.095,15.979-6.095,22.076,0s6.096,15.979,0,22.076l-60.883,60.883c-0.015,15.912-0.921,26.286-1.119,28.357
			c-0.35,3.663-1.129,7.199-2.273,10.568c34.675-3.206,82.542-14.144,116.24-47.843
			C520.409,308.654,511.705,209.979,511.306,205.805z"/>
	</g>
</g>
<g>
</g>
<g>
</g>
<g>
</g>
<g>
</g>
<g>
</g>
<g>
</g>
<g>
</g>
<g>
</g>
<g>
</g>
<g>
</g>
<g>
</g>
<g>
</g>
<g>
</g>
<g>
</g>
<g>
</g>
</svg>
